<?xml version="1.0" encoding="utf-8"?>
<!-- Generator: Adobe Illustrator 15.0.0, SVG Export Plug-In . SVG Version: 6.00 Build 0)  -->
<!DOCTYPE svg PUBLIC "-//W3C//DTD SVG 1.1//EN" "http://www.w3.org/Graphics/SVG/1.1/DTD/svg11.dtd">
<svg version="1.1" id="Layer_1" xmlns="http://www.w3.org/2000/svg" xmlns:xlink="http://www.w3.org/1999/xlink" x="0px" y="0px"
	 width="342px" height="285px" viewBox="0 0 342 285" enable-background="new 0 0 342 285" xml:space="preserve">
<path fill="#4242E2" d="M288.86,215.845v3.405V283l16.818-8.884L319.888,283v-63.75v-1.535L288.86,215.845z M296.394,231.143v3.955
	h-1.679v-6.457h1.679l3.074,3.949h0.017v-3.949h1.679v6.457h-1.679l-3.074-3.955H296.394z M305.36,265.174h-2.406v-19.355h-3.579
	l1.261-2.232h4.725V265.174z M306.537,235.312c-2.072,0-3.571-1.473-3.571-3.562c0-1.952,1.712-3.322,3.571-3.322
	c1.858,0,3.57,1.37,3.57,3.322C310.107,233.839,308.608,235.312,306.537,235.312z M313.15,235.286c-0.608,0-1.094-0.496-1.094-1.094
	c0-0.609,0.485-1.095,1.094-1.095c0.607,0,1.094,0.485,1.094,1.095C314.244,234.79,313.758,235.286,313.15,235.286z"/>
<polygon fill="#231F20" points="121.822,0 116.193,0 9.39,106.8 15.017,106.8 "/>
<polygon fill="#231F20" points="296.271,106.8 189.464,0 183.843,0 290.656,106.8 "/>
<polygon fill="#231F20" points="153.471,252.832 153.471,258.089 183.369,228.19 178.114,228.19 "/>
<polygon fill="#231F20" points="303.482,108.079 298.23,108.079 200.229,206.076 205.484,206.076 "/>
<polygon fill="#231F20" points="7.42,108.079 2.16,108.079 100.158,206.076 105.422,206.076 "/>
<polygon fill="#231F20" points="152.192,258.107 152.192,252.845 127.537,228.19 122.272,228.19 "/>
<polygon fill="#231F20" points="298.08,106.8 303.332,106.8 196.528,0 191.273,0 "/>
<polygon fill="#231F20" points="114.383,0 109.122,0 2.32,106.8 7.58,106.8 "/>
<polygon fill="#231F20" points="14.857,108.079 9.229,108.079 107.23,206.076 112.866,206.076 "/>
<polygon fill="#231F20" points="152.192,251.035 152.192,245.397 134.982,228.19 129.346,228.19 "/>
<polygon fill="#231F20" points="296.421,108.079 290.801,108.079 192.799,206.076 198.42,206.076 "/>
<polygon fill="#231F20" points="153.471,245.402 153.471,251.022 176.305,228.19 170.684,228.19 "/>
<polygon points="226.557,120.864 226.531,126.271 231.606,126.333 "/>
<polygon points="225.229,96.066 225.238,100.89 230.809,96.146 "/>
<path d="M205.956,93.595c9.229,0,15.063,4.866,17.556,6.944l0.448,0.37l-0.011-5.171c-6.721-5.148-13.524-6.232-18.06-6.232
	c-12.195,0-21.747,9.668-21.747,22.011c0,5.926,2.364,11.365,6.659,15.315c4.081,3.752,9.628,5.905,15.219,5.905
	c10.931,0,15.867-3.081,19.231-6.12l0.025-5.659l-0.153,0.181c-2.897,3.425-8.267,7.509-17.392,7.509
	c-12.666,0-19.501-8.826-19.501-17.13C188.231,99.876,197.363,93.595,205.956,93.595z"/>
<path d="M187.265,130.678c5.031,4.629,11.868,7.286,18.756,7.286c14.825,0,20.935-5.279,25.498-10.229l0.111-0.122l-5.497-0.069
	c-3.548,3.213-8.729,6.472-20.112,6.472c-5.91,0-11.772-2.275-16.085-6.244c-4.561-4.195-7.072-9.968-7.072-16.256
	c0-13.06,10.113-23.29,23.026-23.29c4.753,0,11.887,1.139,18.915,6.555l6.091,0.085l-0.209-0.204
	c-8.831-8.583-18.358-10.384-24.797-10.384c-15.126,0-26.974,11.964-26.974,27.238C178.916,118.923,181.88,125.728,187.265,130.678z
	"/>
<path fill="#231F20" d="M137.126,173.165h-15.478l0.1-0.341c0.497-1.705,1.405-3.502,4.367-3.909l3.937-0.517
	c4.838-0.604,7.04-3.885,7.04-6.676c0-1.74-0.814-3.351-2.293-4.535c-1.724-1.38-4.301-2.11-7.45-2.11
	c-3.03,0-6.38,0.912-9.688,2.638l-0.41,0.214l1.909,3.938l0.44-0.244c1.323-0.739,5.435-2.104,7.812-2.104
	c3.624,0,5.24,0.669,5.24,2.171c0,1.24-1.371,1.993-2.298,2.113l-5.041,0.646c-5.477,0.725-8.617,5.347-8.617,12.684v0.477h20.432
	V173.165z"/>
<path fill="#231F20" d="M151.875,134.531c-7.624,0-12.949,4.74-12.949,11.524c0,8.505,6.976,11.523,12.949,11.523
	c5.971,0,12.943-3.019,12.943-11.523C164.818,139.271,159.495,134.531,151.875,134.531z M151.875,153.139
	c-6.277,0-8.504-3.816-8.504-7.083c0-4.169,3.498-7.083,8.504-7.083c5.005,0,8.502,2.914,8.502,7.083
	C160.377,149.322,158.15,153.139,151.875,153.139z"/>
<polygon fill="#231F20" points="144.292,190.458 144.292,194.899 161.561,194.899 161.561,190.458 155.631,190.458 155.631,172.885 
	145.827,172.885 145.827,177.328 151.188,177.328 151.188,190.458 "/>
<path fill="#231F20" d="M186.018,173.165H170.54l0.1-0.341c0.468-1.604,1.385-3.5,4.363-3.909l3.94-0.517
	c4.838-0.604,7.041-3.885,7.041-6.676c0-3.309-3.015-6.646-9.748-6.646c-3.031,0-6.38,0.912-9.688,2.638l-0.406,0.214l1.907,3.938
	l0.44-0.244c1.324-0.739,5.437-2.104,7.811-2.104c3.625,0,5.242,0.669,5.242,2.171c0,1.24-1.371,1.993-2.299,2.113l-5.041,0.646
	c-5.477,0.725-8.619,5.347-8.619,12.684v0.477h20.433V173.165z"/>
<polygon fill="#231F20" points="127.805,69.484 131.589,73.528 137.63,73.515 133.544,69.484 "/>
<polygon fill="#231F20" points="139.755,72.553 143.8,68.585 143.8,37.464 139.755,33.444 "/>
<path fill="#231F20" d="M158.299,69.465H144.73l-4.125,4.045h17.694c11.434,0,20.058-8.934,20.058-20.781
	c0-7.522-4.225-20.254-20.058-20.254l-17.721-0.014l4.085,4.059h13.636c9.576,0,16.011,6.541,16.011,16.276
	C174.31,59.239,169.963,69.465,158.299,69.465z"/>
<path fill="#231F20" d="M158.298,78.781c14.439,0,25.328-11.2,25.328-26.053c0-12.293-7.925-25.525-25.327-25.525l-30.575-0.018
	l3.862,3.99l7.346,0.005l0.176-0.178l0.182,0.178l19.009,0.014c16.841,0,21.336,13.536,21.336,21.534
	c0,12.577-9.172,22.061-21.336,22.061l-19.018,0.019l-0.174,0.167l-0.167-0.167l-7.364,0l-3.991,3.992h14.734L158.298,78.781z"/>
<polygon fill="#231F20" points="138.475,33.447 134.483,37.438 134.483,68.612 138.475,72.551 "/>
<polygon fill="#231F20" points="126.681,77.896 130.422,74.153 126.681,70.154 "/>
<polygon fill="#231F20" points="126.681,35.787 130.426,31.82 126.681,27.947 "/>
<polygon fill="#231F20" points="127.768,36.5 133.611,36.5 137.658,32.455 131.587,32.455 "/>
<path fill="#231F20" d="M100.697,127.635H87.13l-4.126,4.045h17.693c11.434,0,20.056-8.935,20.056-20.781
	c0-7.523-4.225-20.255-20.056-20.255L82.976,90.63l4.085,4.06h13.636c9.577,0,16.01,6.54,16.01,16.274
	C116.707,117.409,112.361,127.635,100.697,127.635z"/>
<polygon fill="#231F20" points="70.203,127.653 73.987,131.699 80.028,131.687 75.944,127.653 "/>
<polygon fill="#231F20" points="82.152,130.725 86.199,126.756 86.199,95.636 82.152,91.616 "/>
<path fill="#231F20" d="M100.697,136.952c14.439,0,25.327-11.201,25.327-26.053c0-12.294-7.925-25.526-25.327-25.526l-30.576-0.018
	l3.859,3.991l7.351,0.005l0.182-0.182l0.179,0.182l19.005,0.014c16.841,0,21.335,13.536,21.335,21.534
	c0,12.577-9.171,22.062-21.335,22.062l-19.015,0.019l-0.165,0.167l-0.176-0.167h-7.365l-3.992,3.991h14.731L100.697,136.952z"/>
<polygon fill="#231F20" points="69.079,128.325 69.079,136.064 72.822,132.324 "/>
<polygon fill="#231F20" points="70.167,94.671 76.011,94.671 80.055,90.625 73.985,90.625 "/>
<polygon fill="#231F20" points="80.873,91.617 76.883,95.608 76.883,126.783 80.873,130.722 "/>
<polygon fill="#231F20" points="69.079,93.958 72.826,89.99 69.079,86.117 "/>
<path d="M173.623,108.667c0-5.068-4.123-9.191-9.191-9.191c-2.511,0-4.79,1.015-6.45,2.654c-1.135-1.448-2.877-2.333-4.779-2.333
	c-1.902,0-3.645,0.884-4.779,2.333c-1.661-1.638-3.938-2.653-6.449-2.653c-5.068,0-9.191,4.124-9.191,9.191
	c0,5.068,4.123,9.192,9.191,9.192c5.069,0,9.192-4.124,9.192-9.192c0-1.754-0.502-3.389-1.359-4.784
	c0.702-1.195,1.982-1.945,3.395-1.945s2.693,0.751,3.395,1.946c-0.855,1.396-1.357,3.03-1.357,4.783
	c0,5.068,4.124,9.192,9.191,9.192C169.5,117.859,173.623,113.736,173.623,108.667z M141.975,115.717
	c-3.886,0-7.049-3.163-7.049-7.05s3.163-7.049,7.049-7.049c3.887,0,7.05,3.162,7.05,7.049S145.862,115.717,141.975,115.717z
	 M164.432,115.717c-3.888,0-7.049-3.163-7.049-7.05s3.162-7.049,7.049-7.049c3.886,0,7.049,3.162,7.049,7.049
	S168.318,115.717,164.432,115.717z"/>
<path d="M136.3,215.376h-0.184v1.812h0.184c0.617,0,1.312-0.115,1.312-0.905C137.612,215.491,136.917,215.376,136.3,215.376z"/>
<polygon points="92.857,216.175 92.076,218.491 93.648,218.491 92.876,216.175 "/>
<polygon points="147.405,216.175 146.623,218.491 148.195,218.491 147.424,216.175 "/>
<path d="M217.51,215.521c-1.129,0-2.054,0.916-2.054,1.918c0,1.253,0.925,2.169,2.054,2.169c1.128,0,2.053-0.916,2.053-2.169
	C219.562,216.437,218.638,215.521,217.51,215.521z"/>
<path d="M257.634,206.076h-52.149h-5.255h-1.81h-5.621h-79.933h-5.636h-1.808h-5.264H53.621c6.106,0,11.057,4.951,11.057,11.057
	c0,6.106-4.951,11.058-11.057,11.058h68.651h5.264h1.809h5.637h35.701h5.621h1.81h5.255h74.265c5.383,0,9.861-3.847,10.85-8.94
	h20.377l0,0h31.027h4.244v-4.235h-55.648C267.494,209.923,263.016,206.076,257.634,206.076z M73.04,221.2h-1.891v-7.271h1.891V221.2
	z M85.002,221.2h-1.89l-3.461-4.456h-0.02v4.456h-1.89v-7.271h1.89l3.461,4.445h0.02v-4.445h1.89V221.2z M94.631,221.2l-0.473-1.264
	h-2.603l-0.501,1.264h-2.006l2.797-7.271h2.062l2.738,7.271H94.631z M107.008,218.019c0,0.935-0.04,1.859-0.761,2.564
	c-0.609,0.598-1.562,0.81-2.412,0.81c-0.847,0-1.803-0.212-2.41-0.81c-0.724-0.705-0.761-1.63-0.761-2.564v-4.09h1.889v3.828
	c0,0.945,0.068,1.977,1.282,1.977c1.215,0,1.282-1.031,1.282-1.977v-3.828h1.891V218.019z M118.18,220.014
	c-0.713,0.993-1.783,1.427-2.999,1.427c-2.284,0-3.876-1.552-3.876-3.837c0-2.363,1.6-3.915,3.943-3.915
	c1.496,0,2.652,0.675,3.279,2.035l-1.793,0.751c-0.259-0.694-0.81-1.157-1.571-1.157c-1.244,0-1.89,1.187-1.89,2.295
	c0,1.128,0.674,2.276,1.919,2.276c0.819,0,1.446-0.425,1.523-1.264h-1.542v-1.485h3.75
	C118.902,218.2,118.826,219.108,118.18,220.014z M129.563,218.019c0,0.935-0.039,1.859-0.761,2.564
	c-0.608,0.598-1.562,0.81-2.411,0.81c-0.848,0-1.803-0.212-2.41-0.81c-0.724-0.705-0.763-1.63-0.763-2.564v-4.09h1.89v3.828
	c0,0.945,0.067,1.977,1.282,1.977s1.282-1.031,1.282-1.977v-3.828h1.89V218.019z M137.919,221.2l-1.784-2.797h-0.02v2.797h-1.889
	v-7.271h2.824c1.437,0,2.527,0.686,2.527,2.238c0,1.002-0.56,1.87-1.591,2.054l2.285,2.979H137.919z M149.18,221.2l-0.473-1.264
	h-2.604l-0.501,1.264h-2.005l2.795-7.271h2.063l2.738,7.271H149.18z M159.405,221.2h-4.155v-7.271h1.889v5.671h2.267V221.2z
	 M174.559,220.708c-0.569,0.481-1.331,0.685-2.064,0.685c-0.916,0-1.812-0.308-2.554-0.829l0.809-1.524
	c0.473,0.416,1.031,0.753,1.678,0.753c0.443,0,0.916-0.222,0.916-0.732c0-0.531-0.742-0.715-1.148-0.83
	c-1.185-0.337-1.966-0.646-1.966-2.055c0-1.475,1.051-2.438,2.507-2.438c0.733,0,1.63,0.232,2.275,0.598l-0.751,1.467
	c-0.348-0.291-0.791-0.483-1.254-0.483c-0.347,0-0.812,0.203-0.812,0.608c0,0.423,0.513,0.588,0.84,0.693l0.482,0.146
	c1.013,0.298,1.793,0.81,1.793,1.985C175.31,219.474,175.136,220.217,174.559,220.708z M183.812,215.531h-2.246v1.213h2.13v1.601
	h-2.13v1.255h2.246v1.601h-4.137v-7.271h4.137V215.531z M192.737,220.708c-0.568,0.481-1.331,0.685-2.063,0.685
	c-0.916,0-1.812-0.308-2.555-0.829l0.811-1.524c0.472,0.416,1.031,0.753,1.678,0.753c0.443,0,0.916-0.222,0.916-0.732
	c0-0.531-0.743-0.715-1.148-0.83c-1.187-0.337-1.967-0.646-1.967-2.055c0-1.475,1.051-2.438,2.506-2.438
	c0.733,0,1.63,0.232,2.276,0.598l-0.752,1.467c-0.348-0.291-0.791-0.483-1.254-0.483c-0.348,0-0.81,0.203-0.81,0.608
	c0,0.423,0.512,0.588,0.839,0.693l0.481,0.146c1.013,0.298,1.794,0.81,1.794,1.985C193.489,219.474,193.315,220.217,192.737,220.708
	z M202.146,220.708c-0.569,0.481-1.331,0.685-2.064,0.685c-0.916,0-1.812-0.308-2.555-0.829l0.81-1.524
	c0.473,0.416,1.031,0.753,1.678,0.753c0.443,0,0.916-0.222,0.916-0.732c0-0.531-0.742-0.715-1.148-0.83
	c-1.185-0.337-1.966-0.646-1.966-2.055c0-1.475,1.051-2.438,2.507-2.438c0.733,0,1.63,0.232,2.275,0.598l-0.751,1.467
	c-0.348-0.291-0.791-0.483-1.255-0.483c-0.346,0-0.811,0.203-0.811,0.608c0,0.423,0.513,0.588,0.84,0.693l0.482,0.146
	c1.013,0.298,1.793,0.81,1.793,1.985C202.896,219.474,202.723,220.217,202.146,220.708z M209.152,221.2h-1.891v-7.271h1.891V221.2z
	 M217.51,221.44c-2.334,0-4.021-1.659-4.021-4.01c0-2.199,1.929-3.742,4.021-3.742c2.092,0,4.021,1.543,4.021,3.742
	C221.53,219.781,219.842,221.44,217.51,221.44z M233.136,221.2h-1.89l-3.461-4.456h-0.021v4.456h-1.89v-7.271h1.89l3.461,4.445
	h0.021v-4.445h1.89V221.2z M257.634,223.906c-2.994,0-5.536-1.955-6.428-4.656h12.857
	C263.172,221.951,260.629,223.906,257.634,223.906z M251.206,215.015c0.892-2.699,3.434-4.654,6.428-4.654
	c2.995,0,5.537,1.955,6.43,4.654H251.206z"/>
<circle cx="53.621" cy="217.133" r="11.057"/>
<path fill="#4242E2" d="M306.537,230.055c-1.002,0-1.824,0.813-1.824,1.704c0,1.113,0.822,1.927,1.824,1.927
	s1.823-0.813,1.823-1.927C308.36,230.868,307.539,230.055,306.537,230.055z"/>
</svg>
