<?xml version="1.0" encoding="utf-8"?>
<!-- Generator: Adobe Illustrator 17.0.0, SVG Export Plug-In . SVG Version: 6.00 Build 0)  -->
<!DOCTYPE svg PUBLIC "-//W3C//DTD SVG 1.1//EN" "http://www.w3.org/Graphics/SVG/1.1/DTD/svg11.dtd">
<svg version="1.1" id="Layer_1" xmlns="http://www.w3.org/2000/svg" xmlns:xlink="http://www.w3.org/1999/xlink" x="0px" y="0px"
	 width="383.871px" height="100.403px" viewBox="0 0 383.871 100.403" enable-background="new 0 0 383.871 100.403"
	 xml:space="preserve">
<g>
	<path fill="#010101" d="M228.04,14.597h-9.05l-2.512-4.688h-10.21l-2.706-4.869h-83.172l28.426,36.601
		c6.829,8.793,15.745,16.046,25.784,20.975c10.04,4.929,21.231,7.547,32.365,7.572l3.431,0.008l-1.149-3.232
		c-0.12-0.334-0.235-0.67-0.352-1.005c-0.832-2.414-1.774-5.15-3.93-7.344c-0.011-0.011-0.021-0.022-0.033-0.033h2.554h6.649h2.036
		h6.929h8.653l3.457-8.465l0.014-0.035c2.76-7.068,2.177-17.912-1.298-24.193L228.04,14.597z M213.951,45.993l-3.092,7.757h-3.374
		h-4.772l0.002-0.008h-11.554l-13.896-24.555h6.57c3.361,0.34,6.344,2.488,7.984,5.441l10.103,17.364
		c0.33,0.566,1.189,0.395,1.277-0.254l1.617-11.929l-9.094-15.433H176.74v0.053h-7.995l19.328,34.104l1.387,0.018
		c3.673,0.047,3.994,0.051,4.009,0.051c0,0,0,0-0.001,0c2.899,0.037,6.059,1.371,8.05,3.396c0.877,0.893,1.475,2.018,1.981,3.258
		c-19.831-1.068-38.644-10.84-50.869-26.581L133.333,13.83c-1.252-1.612-0.103-3.958,1.938-3.958h65.448l12.275,22.084
		C215.397,36.278,215.743,41.4,213.951,45.993z M222.036,47.958l-1.484,3.83c-0.221,0.569-0.966,0.703-1.371,0.246l-1.681-1.898
		l0.946-2.372c2.323-5.955,1.875-12.573-1.229-18.157l-8.264-14.869h4.633l7.399,13.806l0.018,0.033
		C223.788,33.591,224.253,42.282,222.036,47.958z M230.73,48.308l-1.367,3.344c-0.232,0.571-0.982,0.699-1.39,0.238l-1.584-1.789
		l0.151-0.39c2.759-7.064,2.197-17.146-1.305-23.462l-3.656-6.82h3.531l4.546,8.722l0.031,0.057
		C232.466,33.208,232.952,42.595,230.73,48.308z"/>
	<path fill="#010101" d="M22.004,31.33c-0.685-3.33-3.936-5.362-7.234-4.684l-4.367,0.898l2.437,11.844l4.367-0.898
		C20.49,37.815,22.69,34.66,22.004,31.33z M15.382,36.147l-1.364-6.629l0.723-0.148c1.979-0.408,3.623,0.498,4.06,2.62
		c0.475,2.309-0.889,3.638-2.727,4.016L15.382,36.147z"/>
	<polygon fill="#010101" points="33.225,35.703 32.822,33.072 29.129,33.637 28.814,31.576 32.317,31.039 31.914,28.409 
		28.411,28.945 28.105,26.947 31.798,26.382 31.395,23.75 24.595,24.791 26.425,36.744 	"/>
	<path fill="#010101" d="M39.596,29.949c0.691,0.118,1.951,0.287,2.047,1.164c0.092,0.845-0.649,1.297-1.382,1.377
		c-1.068,0.116-2.054-0.341-2.91-0.941l-1.064,2.666c1.322,0.728,2.86,1.075,4.375,0.91c1.212-0.132,2.435-0.604,3.289-1.504
		c0.868-0.918,1.021-2.177,0.891-3.373c-0.213-1.945-1.596-2.649-3.324-2.961l-0.823-0.152c-0.561-0.117-1.436-0.295-1.512-0.997
		c-0.073-0.67,0.656-1.088,1.229-1.15c0.766-0.084,1.534,0.155,2.16,0.571L43.549,23c-1.134-0.489-2.659-0.711-3.87-0.578
		c-2.408,0.263-3.972,2.046-3.706,4.485C36.227,29.235,37.573,29.605,39.596,29.949z"/>
	
		<rect x="43.673" y="26.335" transform="matrix(0.0718 0.9974 -0.9974 0.0718 73.9867 -23.6882)" fill="#010101" width="12.096" height="3.145"/>
	<path fill="#010101" d="M61.412,33.787c2.02-0.053,3.781-0.821,4.924-2.505c1.035-1.536,1.124-3.046,1.109-4.811l-6.239,0.164
		l0.066,2.47l2.565-0.068c-0.091,1.398-1.115,2.131-2.478,2.167c-2.069,0.055-3.241-1.824-3.291-3.7
		c-0.049-1.844,0.974-3.845,3.042-3.899c1.267-0.033,2.201,0.712,2.665,1.855l2.949-1.33c-1.102-2.233-3.056-3.305-5.541-3.239
		c-3.896,0.103-6.491,2.755-6.387,6.684C54.897,31.375,57.611,33.887,61.412,33.787z"/>
	<polygon fill="#010101" points="74.25,25.974 74.282,25.975 79.724,33.621 82.865,33.752 83.372,21.669 80.232,21.537 
		79.922,28.925 79.889,28.923 74.447,21.294 71.306,21.163 70.798,33.246 73.939,33.377 	"/>
	<polygon fill="#010101" points="93.777,32.195 90.061,31.799 90.282,29.725 93.807,30.102 94.09,27.454 90.565,27.078 
		90.779,25.068 94.495,25.465 94.778,22.817 87.936,22.087 86.652,34.113 93.494,34.843 	"/>
	<path fill="#010101" d="M101.036,31.26l0.032,0.005l2.143,5.085l3.857,0.658l-2.914-5.524c1.743-0.012,2.903-1.279,3.183-2.923
		c0.435-2.546-1.161-3.973-3.517-4.375l-4.633-0.79l-2.033,11.922l3.099,0.529L101.036,31.26z M101.882,26.295l0.301,0.051
		c1.012,0.172,2.118,0.557,1.897,1.854c-0.221,1.296-1.392,1.292-2.404,1.119l-0.301-0.052L101.882,26.295z"/>
	<path fill="#010101" d="M115.694,29.011c0.749,0.181,1.391,0.666,1.839,1.27l1.789-2.076c-0.901-0.845-2.261-1.57-3.446-1.856
		c-2.354-0.569-4.431,0.58-5.007,2.965c-0.551,2.276,0.592,3.081,2.378,4.09c0.609,0.345,1.738,0.932,1.531,1.79
		c-0.199,0.826-1.05,1-1.768,0.827c-1.044-0.252-1.817-1.017-2.419-1.872l-1.905,2.147c0.998,1.132,2.327,1.982,3.809,2.34
		c1.184,0.286,2.495,0.256,3.604-0.301c1.127-0.569,1.698-1.702,1.981-2.872c0.459-1.902-0.604-3.034-2.124-3.913l-0.724-0.422
		c-0.488-0.299-1.251-0.764-1.085-1.451C114.306,29.022,115.133,28.875,115.694,29.011z"/>
	<path fill="#010101" d="M262.685,32.112c-0.761-3.314-4.057-5.273-7.339-4.521L251,28.588l2.703,11.787l4.346-0.997
		C261.316,38.629,263.444,35.426,262.685,32.112z M256.86,36.919l-0.688,0.158l-1.513-6.597l0.718-0.165
		c1.971-0.452,3.634,0.418,4.118,2.528C260.022,35.142,258.689,36.5,256.86,36.919z"/>
	<polygon fill="#010101" points="273.683,36.342 273.233,33.718 269.549,34.35 269.196,32.295 272.691,31.696 272.24,29.072 
		268.746,29.671 268.405,27.679 272.088,27.048 271.638,24.424 264.856,25.588 266.902,37.505 	"/>
	<path fill="#010101" d="M281.867,35.229c2.197-0.273,4.244-1.366,3.932-3.881c-0.207-1.671-1.083-2.742-2.83-2.753l-0.004-0.032
		c0.91-0.614,1.152-1.533,1.017-2.615c-0.284-2.292-1.82-2.942-3.953-2.678l-4.457,0.553l1.488,12.002L281.867,35.229z
		 M282.608,31.419c0.164,1.321-1.401,1.467-2.325,1.582l-0.398,0.049l-0.32-2.579l0.319-0.04
		C280.902,30.306,282.428,29.971,282.608,31.419z M279.212,25.796c0.844-0.105,1.823-0.161,1.958,0.936
		c0.126,1.019-0.715,1.269-1.543,1.372l-0.35,0.043l-0.289-2.324L279.212,25.796z"/>
	<path fill="#010101" d="M292.211,32.063l4.32-0.31l0.934,2.04l3.344-0.24l-5.409-11.738l-3.424,0.245l-3.775,12.397l3.328-0.238
		L292.211,32.063z M293.923,25.669l0.033-0.003l1.554,3.748l-2.607,0.188L293.923,25.669z"/>
	<polygon fill="#010101" points="303.71,24.07 303.98,33.496 307.122,33.406 306.853,23.98 309.449,23.906 309.373,21.245 
		301.037,21.483 301.113,24.144 	"/>
	<polygon fill="#010101" points="319.264,30.738 315.527,30.697 315.55,28.611 319.095,28.651 319.125,25.988 315.58,25.949 
		315.602,23.927 319.34,23.969 319.369,21.307 312.487,21.23 312.353,33.324 319.235,33.401 	"/>
	<path fill="#010101" d="M334.552,34.594c0.975,0.078,1.746-0.102,2.811-0.338l0.301-3.757c-0.719,0.731-1.782,1.145-2.805,1.062
		c-1.951-0.156-3.151-1.636-3-3.539c0.15-1.871,1.562-3.238,3.481-3.085c1.071,0.086,2.073,0.633,2.644,1.548l0.301-3.758
		c-0.897-0.458-1.806-0.756-2.813-0.836c-1.695-0.135-3.465,0.463-4.747,1.584c-1.246,1.091-1.996,2.624-2.127,4.271
		c-0.144,1.79,0.339,3.406,1.569,4.712C331.325,33.692,332.873,34.459,334.552,34.594z"/>
	<polygon fill="#010101" points="347.925,33.083 344.184,32.619 345.347,23.258 342.227,22.872 340.736,34.873 347.596,35.726 	"/>
	<path fill="#010101" d="M355.159,37.273c1.39,0.242,3.015,0.167,4.181-0.641c1.385-0.947,1.712-2.453,1.979-3.985l1.166-6.7
		l-3.097-0.539l-1.091,6.273c-0.27,1.548-0.675,3.22-2.666,2.874c-1.991-0.347-1.808-2.056-1.538-3.604l1.091-6.273l-3.097-0.538
		l-1.165,6.699c-0.267,1.533-0.468,3.061,0.517,4.42C352.264,36.412,353.768,37.032,355.159,37.273z"/>
	<path fill="#010101" d="M373.349,31.594c0.519-2.25-0.701-3.387-2.795-3.869l-4.376-1.008L363.465,38.5l4.719,1.087
		c2.157,0.497,4.454,0.17,5.022-2.299c0.378-1.641-0.078-2.947-1.715-3.555l0.007-0.032
		C372.562,33.437,373.105,32.657,373.349,31.594z M370.184,36.264c-0.299,1.297-1.82,0.897-2.726,0.688l-0.392-0.09l0.583-2.532
		l0.312,0.072C368.963,34.633,370.511,34.841,370.184,36.264z M370.439,31.368c-0.231,1-1.106,0.947-1.92,0.76l-0.343-0.08
		l0.526-2.282l0.218,0.05C369.748,30.008,370.687,30.29,370.439,31.368z"/>
	<path fill="#010101" d="M25.166,43.819l83.562,0.098c-12.514-2.637-26.023-3.972-40.254-3.972
		C51.025,39.946,35.635,41.963,25.166,43.819z"/>
	<path fill="#010101" d="M272.47,43.819l83.562,0.098c-12.513-2.637-26.022-3.972-40.254-3.972
		C298.329,39.946,282.939,41.963,272.47,43.819z"/>
	<path fill="#010101" d="M163.616,82.562c-2.602-0.637-4.817,0.521-5.47,3.185c-0.675,2.757,0.938,4.737,3.586,5.385
		c1.822,0.446,3.823,0.028,4.736-1.746l-2.726-0.668c-0.441,0.454-0.927,0.549-1.534,0.4c-1.168-0.286-1.624-1.058-1.341-2.21
		l5.966,1.46l0.073-0.296C167.573,85.348,166.389,83.242,163.616,82.562z M161.314,85.285c0.374-0.783,1.166-1.051,1.992-0.85
		c0.763,0.187,1.342,0.856,1.295,1.654L161.314,85.285z"/>
	<path fill="#010101" d="M172.981,86.567c0.489,0.089,1.076,0.358,1.475,0.675l1.294-1.656c-0.767-0.531-1.656-0.839-2.572-1.005
		c-1.768-0.321-3.727,0.236-4.088,2.225c-0.264,1.451,0.556,2.057,1.413,2.457c0.856,0.4,1.75,0.595,1.636,1.226
		c-0.081,0.442-0.649,0.518-1.011,0.453c-0.711-0.129-1.614-0.718-2.124-1.233l-1.406,1.815c0.87,0.777,1.946,1.315,3.098,1.524
		c1.878,0.341,3.979-0.19,4.367-2.32c0.272-1.5-0.624-2.314-1.917-2.826c-0.38-0.15-1.265-0.393-1.165-0.944
		C172.055,86.546,172.65,86.507,172.981,86.567z"/>
	<polygon fill="#010101" points="181.658,83.63 178.763,83.254 178.444,85.704 177.506,85.583 177.197,87.968 178.135,88.09 
		177.386,93.865 180.281,94.241 181.03,88.466 182.669,88.679 182.979,86.293 181.34,86.08 	"/>
	<path fill="#010101" d="M185.211,91.307c-1.039-0.094-1.945,0.661-2.039,1.699c-0.093,1.023,0.661,1.945,1.699,2.039
		c1.038,0.095,1.946-0.676,2.039-1.699C187.005,92.308,186.25,91.402,185.211,91.307z"/>
	<path fill="#010101" d="M200.317,90.942c1.24-1.118,1.966-2.125,1.975-3.857c0.013-2.63-2.112-4.309-4.647-4.321
		c-2.855-0.014-4.628,1.854-4.739,4.628l3.465,0.017c-0.031-0.177-0.046-0.353-0.046-0.514c0.004-0.818,0.473-1.473,1.323-1.469
		c0.834,0.003,1.376,0.808,1.373,1.578c-0.006,1.107-0.685,2.195-1.395,2.961l-4.965,5.351l9.72,0.046l0.013-2.663l-3.961-0.019
		L200.317,90.942z"/>
	<path fill="#010101" d="M209.452,82.28c-3.578,0.317-4.812,3.825-4.535,6.955c0.277,3.131,2.095,6.367,5.688,6.048
		c3.594-0.319,4.812-3.824,4.535-6.955C214.862,85.197,213.03,81.963,209.452,82.28z M210.361,92.519
		c-1.614,0.143-2.227-2.411-2.33-3.577c-0.104-1.167,0.052-3.756,1.666-3.899c1.613-0.143,2.223,2.379,2.328,3.545
		C212.128,89.755,211.975,92.376,210.361,92.519z"/>
	<polygon fill="#010101" points="216.172,82.014 216.62,84.638 218.328,84.346 219.916,93.643 223.016,93.114 220.978,81.192 	"/>
	<path fill="#010101" d="M231.577,88.441l1.378-2.163c0.914-1.396,1.359-2.556,0.923-4.232c-0.659-2.546-3.142-3.626-5.596-2.99
		c-2.763,0.716-4,2.976-3.397,5.685l3.354-0.869c-0.076-0.163-0.135-0.33-0.177-0.485c-0.204-0.792,0.081-1.544,0.905-1.758
		c0.808-0.21,1.536,0.431,1.729,1.175c0.278,1.072-0.101,2.296-0.592,3.218l-3.434,6.44l9.409-2.438l-0.668-2.578L231.577,88.441z"
		/>
</g>
</svg>
