<?xml version="1.0" encoding="utf-8"?>
<!-- Generator: Adobe Illustrator 17.0.0, SVG Export Plug-In . SVG Version: 6.00 Build 0)  -->
<!DOCTYPE svg PUBLIC "-//W3C//DTD SVG 1.1//EN" "http://www.w3.org/Graphics/SVG/1.1/DTD/svg11.dtd">
<svg version="1.1" id="Layer_1" xmlns="http://www.w3.org/2000/svg" xmlns:xlink="http://www.w3.org/1999/xlink" x="0px" y="0px"
	 width="888px" height="1092px" viewBox="0 0 888 1092" enable-background="new 0 0 888 1092" xml:space="preserve">
<g opacity="0.15">
	<path fill="#D1D3D4" d="M321.115,544.099c28.065,36.139,64.708,65.946,105.966,86.201c41.257,20.253,87.251,31.014,133.005,31.118
		l14.1,0.032l-4.723-13.285c-0.488-1.376-0.963-2.755-1.438-4.13c-3.42-9.921-7.295-21.165-16.155-30.179
		c-0.046-0.046-0.089-0.091-0.134-0.137h10.492h27.326h8.366h28.479h35.562l14.207-34.787l0.056-0.142
		c11.343-29.048,8.945-73.609-5.335-99.427l-24.19-46.406h-37.188l-10.326-19.267h-41.959l-11.123-20.009h-341.81L321.115,544.099z
		 M634.66,452.813l18.684,35.842l0.126,0.236c11.426,20.551,13.424,59.13,4.289,82.61l-5.614,13.743
		c-0.958,2.344-4.042,2.87-5.721,0.974l-6.512-7.349l0.622-1.604c11.34-29.031,9.031-70.468-5.362-96.423l-15.02-28.028H634.66z
		 M587.302,433.544l30.405,56.738l0.075,0.134c11.45,20.599,13.362,56.319,4.251,79.646l-6.104,15.741
		c-0.907,2.339-3.964,2.889-5.63,1.011l-6.909-7.8l3.884-9.747c9.548-24.472,7.708-51.669-5.048-74.617l-33.964-61.107H587.302z
		 M265.452,413.535h268.971l50.448,90.762c9.873,17.764,11.297,38.813,3.932,57.687l-12.708,31.883h-13.867h-19.606l0.005-0.035
		h-47.485l-57.107-100.91h27c13.813,1.395,26.07,10.224,32.816,22.364l41.514,71.356c1.354,2.328,4.89,1.625,5.252-1.043
		l6.641-49.019l-37.373-63.425h-78.005v0.215h-32.858l79.428,140.158l5.7,0.075c15.098,0.193,16.412,0.209,16.479,0.212
		c-0.003,0-0.003,0-0.005,0c11.917,0.153,24.901,5.63,33.084,13.958c3.602,3.669,6.062,8.293,8.138,13.392
		c-81.497-4.391-158.812-44.55-209.052-109.241l-79.307-102.117C252.343,423.18,257.064,413.537,265.452,413.535z"/>
	<path fill="#D1D3D4" d="M376.528,810.374l-77.83-36.319c-24.567-11.726-52.3-13.419-78.086-4.766
		c-4.141,1.384-8.289,3.076-12.391,5.061L133.83,811.08l74.566,35.933c4.039,1.931,8.191,3.605,12.332,4.973
		c25.83,8.559,53.56,6.764,78.002-5.018L376.528,810.374z M292.688,830.083l-1.631,0.767c-20.323,9.792-43.306,11.281-64.721,4.187
		c-3.433-1.134-6.878-2.524-10.212-4.12l-19.305-9.302c-9.05-4.361-9.113-17.227-0.105-21.674l19.342-9.551
		c3.354-1.623,6.791-3.025,10.224-4.173c21.377-7.172,44.364-5.769,64.796,3.983l24.657,11.506l-75.416,0.279l0.066,17.852
		l49.954-0.185C296.204,819.63,297.997,827.585,292.688,830.083z"/>
	<path fill="#D1D3D4" d="M292.951,207.663c1.95-3.909,3.685-8.039,5.185-12.342l26.628-78.572l-78.133,27.319
		c-4.224,1.489-8.341,3.243-12.236,5.203c-24.319,12.212-42.657,33.088-51.61,58.703l-29.135,80.887l80.716-29.353
		C260.029,250.429,280.836,232.013,292.951,207.663z M225.997,243.555c-5.551,2.018-9.978-4.903-5.816-9.095l35.717-35.982
		l-12.67-12.578l-52.605,52.998l8.987-24.952c7.446-21.296,22.644-38.6,42.804-48.726c3.229-1.625,6.648-3.079,10.134-4.309
		l43.562-15.231l-14.858,43.841c-1.226,3.518-2.663,6.941-4.281,10.18c-10.043,20.188-27.288,35.451-48.633,43.003L225.997,243.555z
		"/>
	<path fill="#D1D3D4" d="M155.104,657.704c-8.953-25.614-27.291-46.49-51.61-58.701c-3.894-1.961-8.012-3.715-12.236-5.203
		l-78.133-27.32l26.628,78.573c1.499,4.302,3.235,8.433,5.185,12.341c12.115,24.351,32.922,42.767,58.585,51.846l80.716,29.353
		L155.104,657.704z M117.708,684.19c4.161,4.192-0.266,11.115-5.816,9.095l-2.342-0.85c-21.344-7.553-38.589-22.814-48.633-43.003
		c-1.617-3.24-3.055-6.662-4.281-10.181l-14.858-43.84l43.562,15.229c3.487,1.231,6.905,2.685,10.134,4.31
		c20.16,10.125,35.359,27.43,42.804,48.726l8.987,24.952L94.662,635.63l-12.67,12.579L117.708,684.19z"/>
	<path fill="#D1D3D4" d="M93.392,549.41l36.319-77.83c11.726-24.566,13.419-52.299,4.766-78.085
		c-1.385-4.143-3.078-8.29-5.061-12.393l-36.729-74.389L56.754,381.28c-1.931,4.039-3.605,8.191-4.973,12.331
		c-8.559,25.83-6.764,53.561,5.017,78.003L93.392,549.41z M68.729,399.218c1.135-3.433,2.524-6.877,4.118-10.212l20.034-41.573
		l20.494,41.506c1.621,3.354,3.024,6.791,4.172,10.226c7.173,21.377,5.771,44.363-3.983,64.795l-1.053,2.258
		c-2.497,5.353-10.523,3.589-10.545-2.32l-0.188-50.699l-17.852,0.067l0.185,49.953c0.021,5.86-7.926,7.649-10.43,2.352
		l-0.767-1.631C63.122,443.618,61.634,420.635,68.729,399.218z"/>
	<path fill="#D1D3D4" d="M414.779,199.049c11.142,23.685,44.861,23.632,55.93-0.086l8.446-18.098
		c11.726-24.566,13.419-52.3,4.766-78.085c-1.387-4.143-3.079-8.291-5.061-12.393L442.13,16l-35.933,74.566
		c-1.931,4.039-3.605,8.191-4.973,12.331c-8.559,25.83-6.764,53.56,5.017,78.003L414.779,199.049z M418.173,108.504
		c1.135-3.433,2.524-6.877,4.118-10.212l20.034-41.573l20.495,41.506c1.62,3.354,3.023,6.791,4.171,10.226
		c7.175,21.377,5.772,44.362-3.983,64.795l-1.051,2.257c-2.497,5.353-10.524,3.589-10.546-2.319l-0.188-50.698l-17.852,0.066
		l0.185,49.954c0.021,5.859-7.926,7.648-10.43,2.352l-0.767-1.632C412.566,152.903,411.078,129.92,418.173,108.504z"/>
	<path fill="#D1D3D4" d="M667.388,769.289c-25.787-8.653-53.519-6.96-78.085,4.766l-77.83,36.319l77.796,36.592
		c24.442,11.783,52.173,13.577,78.002,5.018c4.141-1.368,8.293-3.041,12.332-4.973l74.566-35.933l-74.389-36.729
		C675.678,772.366,671.529,770.673,667.388,769.289z M691.181,821.615l-19.306,9.302c-3.334,1.596-6.778,2.985-10.211,4.12
		c-21.417,7.094-44.4,5.606-64.723-4.187l-1.631-0.767c-5.308-2.497-3.516-10.452,2.352-10.431l49.952,0.185l0.067-17.852
		l-75.416-0.279l24.657-11.506c20.433-9.752,43.419-11.155,64.795-3.983c3.433,1.148,6.872,2.551,10.224,4.173l19.344,9.551
		C700.292,804.388,700.231,817.254,691.181,821.615z"/>
	<path fill="#D1D3D4" d="M575.873,926.42c-10.082-25.26-29.316-45.315-54.152-56.459l-75.647-34.747l-0.9-1.912l-0.393,0.841
		l-0.497,0.249l-0.611-0.281l0.14,0.517l-75.753,37.966c-24.441,11.981-42.983,32.679-52.201,58.267
		c-1.487,4.106-2.733,8.411-3.725,12.856l-17.374,81.124l74.455-36.161c4.023-1.971,7.911-4.187,11.555-6.585
		c6.802-4.468,12.967-9.657,18.449-15.426c0.787,7.596,2.389,15.153,4.87,22.549c1.385,4.141,3.078,8.288,5.061,12.392L445.88,1076
		l35.933-74.566c1.93-4.039,3.605-8.191,4.973-12.332c2.824-8.523,4.497-17.252,5.08-26.002c6.15,6.372,13.134,12.012,20.878,16.73
		c3.723,2.275,7.684,4.359,11.772,6.19l75.639,33.61l-20.121-80.488C578.893,934.732,577.499,930.472,575.873,926.42z
		 M370.961,967.18c-3.02,1.988-6.245,3.827-9.569,5.453l-19.277,9.361c-9.037,4.388-19.161-3.548-17.058-13.37l4.517-21.092
		c0.81-3.637,1.844-7.204,3.074-10.608c7.645-21.216,23.011-38.365,43.342-48.335l24.323-12.19l-46.589,59.307l14.04,11.029
		l46.13-58.72l-5.822,24.864c-2.884,6.334-5.107,12.865-6.667,19.514C394.679,946.432,384.262,958.443,370.961,967.18z
		 M469.837,983.493c-1.135,3.433-2.525,6.88-4.12,10.214l-9.302,19.306c-4.361,9.049-17.226,9.111-21.674,0.105l-9.551-19.344
		c-1.621-3.355-3.024-6.791-4.172-10.224c-4.96-14.78-5.814-30.329-2.649-45.272c2.842-6.244,5.085-12.8,6.669-19.606l11.468-24.577
		l0.28,75.417l17.852-0.064l-0.278-74.674l11.29,24C475.443,939.095,476.932,962.079,469.837,983.493z M551.372,978.416
		l-19.585-8.701c-3.377-1.513-6.662-3.24-9.75-5.123c-19.263-11.74-32.998-30.228-38.679-52.06l-6.917-25.601l48.099,57.116
		l13.655-11.498l-48.579-57.69l24.727,11.356c20.655,9.272,36.595,25.891,44.958,46.833c1.344,3.361,2.5,6.891,3.433,10.498
		l5.23,20.926C570.402,974.215,560.553,982.493,551.372,978.416z"/>
	<path fill="#D1D3D4" d="M595.048,207.663c12.115,24.35,32.923,42.765,58.586,51.844l80.716,29.353l-29.136-80.887
		c-8.953-25.614-27.291-46.491-51.61-58.703c-3.894-1.961-8.012-3.715-12.236-5.203l-78.133-27.319l26.628,78.572
		C591.362,199.625,593.098,203.754,595.048,207.663z M635.452,160.911c3.487,1.23,6.906,2.683,10.136,4.309
		c20.159,10.126,35.359,27.43,42.804,48.726l8.985,24.952L644.772,185.9l-12.67,12.578l35.718,35.982
		c4.16,4.192-0.266,11.113-5.818,9.095l-2.341-0.852c-21.344-7.552-38.588-22.814-48.633-43.003
		c-1.617-3.239-3.055-6.663-4.281-10.18l-14.856-43.841L635.452,160.911z"/>
	<path fill="#D1D3D4" d="M796.742,593.799c-4.224,1.488-8.341,3.243-12.236,5.203c-24.319,12.212-42.657,33.087-51.61,58.701
		l-29.136,80.888l80.716-29.353c25.663-9.079,46.471-27.495,58.586-51.846c1.95-3.908,3.685-8.039,5.185-12.341l26.628-78.573
		L796.742,593.799z M831.363,639.251c-1.226,3.519-2.663,6.941-4.281,10.181c-10.045,20.188-27.288,35.45-48.633,43.003l-2.341,0.85
		c-5.552,2.02-9.978-4.903-5.818-9.095l35.718-35.981l-12.67-12.579l-52.605,52.999l8.985-24.952
		c7.446-21.296,22.645-38.601,42.804-48.726c3.229-1.625,6.649-3.079,10.136-4.31l43.561-15.229L831.363,639.251z"/>
	<path fill="#D1D3D4" d="M794.607,549.41l36.595-77.795c11.78-24.442,13.574-52.173,5.016-78.003
		c-1.368-4.14-3.042-8.292-4.973-12.331l-35.933-74.567l-36.729,74.389c-1.982,4.102-3.674,8.25-5.061,12.393
		c-8.653,25.786-6.96,53.519,4.766,78.085L794.607,549.41z M770.452,399.164c1.148-3.434,2.551-6.872,4.171-10.226l20.494-41.506
		l20.036,41.573c1.593,3.335,2.983,6.779,4.117,10.212c7.097,21.417,5.608,44.4-4.187,64.723l-0.767,1.631
		c-2.502,5.297-10.45,3.508-10.428-2.352l0.185-49.953l-17.852-0.067l-0.188,50.699c-0.021,5.909-8.049,7.674-10.546,2.32
		l-1.051-2.258C764.68,443.527,763.277,420.541,770.452,399.164z"/>
	<path fill="#D1D3D4" d="M417.267,313.127c0-13.114-10.702-23.321-23.691-23.321h-17.197v46.64h17.197
		C406.504,336.446,417.267,326.24,417.267,313.127z M388.503,326.178v-26.104h2.846c7.794,0,13.299,4.702,13.299,13.053
		c0,9.092-6.185,13.051-13.423,13.051H388.503z"/>
	<path fill="#D1D3D4" d="M467.489,313.127c0-13.114-10.702-23.321-23.691-23.321h-17.197v46.64h17.197
		C456.725,336.446,467.489,326.24,467.489,313.127z M441.447,326.178h-2.721v-26.104h2.844c7.794,0,13.299,4.702,13.299,13.053
		C454.869,322.219,448.684,326.178,441.447,326.178z"/>
	<path fill="#D1D3D4" d="M475.71,313.188c0,6.928,2.351,12.99,7.485,17.628c4.825,4.392,11.012,6.866,17.506,6.866
		c3.772,0,6.68-0.928,10.7-2.164v-14.537c-2.536,3.031-6.495,4.949-10.454,4.949c-7.546,0-12.618-5.319-12.618-12.68
		c0-7.238,5.01-12.928,12.433-12.928c4.144,0,8.164,1.793,10.639,5.134V290.92c-3.587-1.485-7.175-2.351-11.072-2.351
		c-6.556,0-13.176,2.846-17.753,7.546C478.122,300.693,475.71,306.817,475.71,313.188z"/>
	<path fill="#D1D3D4" d="M355.463,708.431c3.878,1.462,7.007,4.558,8.144,8.556l5.127-13.601c-2.834-2.654-5.885-4.729-9.531-6.103
		c-6.135-2.312-13.332-1.983-19.271,0.801c-5.781,2.712-10.199,7.59-12.445,13.552c-2.443,6.483-2.382,12.983,0.786,19.134
		c2.965,5.811,7.88,10.307,13.958,12.598c3.53,1.33,6.578,1.487,10.776,1.747l5.127-13.601c-3.443,1.942-7.822,2.34-11.527,0.944
		c-7.061-2.661-9.931-9.428-7.334-16.314C341.824,709.371,348.518,705.815,355.463,708.431z"/>
	<polygon fill="#D1D3D4" points="408.2,759.235 417.871,713.606 406.009,711.092 402.277,728.703 385.151,725.074 388.883,707.463 
		377.022,704.95 367.352,750.578 379.213,753.091 383.176,734.393 400.303,738.022 396.34,756.722 	"/>
	<path fill="#D1D3D4" d="M418.976,760.964l12.853,0.502l3.528-7.97l16.684,0.65l2.713,8.213l12.915,0.504l-15.732-47.277
		l-13.224-0.516L418.976,760.964z M444.64,729.721l0.123,0.005l4.365,15.023l-10.073-0.393L444.64,729.721z"/>
	<polygon fill="#D1D3D4" points="500.793,758.678 505.552,757.891 512.214,729.581 512.336,729.56 520.075,755.487 532.035,753.507 
		517.462,708.651 505.565,710.62 499.75,736.847 486.343,713.802 474.567,715.751 474.373,763.052 486.271,761.083 485.731,733.964 
		485.853,733.944 	"/>
	<path fill="#D1D3D4" d="M566.255,706.445c-3.937-9.947-12.083-11.71-21.398-8.024l-17.249,6.826l17.158,43.354l11.27-4.46
		l-5.69-14.374l6.382-2.527C566.56,723.349,570.305,716.68,566.255,706.445z M548.648,719.931l-1.898,0.751l-4.278-10.809
		l1.898-0.751c4.371-1.73,8.13-3.151,10.291,2.311C556.755,716.723,552.73,718.316,548.648,719.931z"/>
</g>
</svg>
