<?xml version="1.0" encoding="utf-8"?>
<!-- Generator: Adobe Illustrator 15.1.0, SVG Export Plug-In . SVG Version: 6.00 Build 0)  -->
<!DOCTYPE svg PUBLIC "-//W3C//DTD SVG 1.1//EN" "http://www.w3.org/Graphics/SVG/1.1/DTD/svg11.dtd">
<svg version="1.1" id="Layer_1" xmlns="http://www.w3.org/2000/svg" xmlns:xlink="http://www.w3.org/1999/xlink" x="0px" y="0px"
	 width="214px" height="82px" viewBox="0 0 214 82" enable-background="new 0 0 214 82" xml:space="preserve">
<g>
	<polyline fill="#4242E6" points="20.712,47.151 213.318,47.151 205.025,32.666 213.318,18.181 36.072,18.181 	"/>
	<g>
		<g>
			<path fill="#FFFFFF" d="M54.111,33.72h0.022l1.743-5.373h1.721l1.633,5.373h0.022l1.566-5.373h2.25l-2.659,8.318h-2.207
				l-1.456-4.821h-0.022l-1.633,4.821h-2.195l-2.482-8.318h2.25L54.111,33.72z"/>
			<path fill="#FFFFFF" d="M71.315,31.558v-3.21h2.163v8.318h-2.163v-3.409h-3.122v3.409h-2.162v-8.318h2.162v3.21H71.315z"/>
			<path fill="#FFFFFF" d="M79.475,30.179v1.39h2.438V33.4h-2.438v1.434h2.571v1.832h-4.733v-8.318h4.733v1.832H79.475z"/>
			<path fill="#FFFFFF" d="M85.805,28.348h2.162l3.961,5.086h0.022v-5.086h2.163v8.318H91.95l-3.96-5.097h-0.022v5.097h-2.162
				V28.348z"/>
			<path fill="#FFFFFF" d="M106.274,35.221l-0.574,1.445h-2.295l3.199-8.318h2.361l3.133,8.318h-2.306l-0.54-1.445H106.274z
				 M107.785,30.918h-0.022l-0.893,2.647h1.798L107.785,30.918z"/>
			<path fill="#FFFFFF" d="M115.194,28.348h2.162l3.961,5.086h0.022v-5.086h2.162v8.318h-2.162l-3.96-5.097h-0.023v5.097h-2.162
				V28.348z"/>
			<path fill="#FFFFFF" d="M127.337,28.348h3.066c2.317,0,4.226,1.82,4.226,4.159s-1.919,4.159-4.226,4.159h-3.066V28.348z
				 M129.499,34.834h0.486c1.29,0,2.393-0.706,2.393-2.328c0-1.489-0.98-2.328-2.371-2.328h-0.508V34.834z"/>
			<path fill="#FFFFFF" d="M147.088,33.72h0.023l1.742-5.373h1.721l1.633,5.373h0.023l1.566-5.373h2.25l-2.658,8.318h-2.207
				l-1.457-4.821h-0.021l-1.633,4.821h-2.195l-2.481-8.318h2.249L147.088,33.72z"/>
			<path fill="#FFFFFF" d="M164.293,31.558v-3.21h2.162v8.318h-2.162v-3.409h-3.121v3.409h-2.162v-8.318h2.162v3.21H164.293z"/>
			<path fill="#FFFFFF" d="M172.453,30.179v1.39h2.438V33.4h-2.438v1.434h2.57v1.832h-4.732v-8.318h4.732v1.832H172.453z"/>
			<path fill="#FFFFFF" d="M185.699,36.666h-2.691l-2.041-3.199h-0.021v3.199h-2.162v-8.318h3.232c1.643,0,2.891,0.783,2.891,2.56
				c0,1.147-0.641,2.14-1.82,2.35L185.699,36.666z M180.945,32.077h0.209c0.707,0,1.5-0.132,1.5-1.037
				c0-0.904-0.793-1.037-1.5-1.037h-0.209V32.077z"/>
			<path fill="#FFFFFF" d="M190.869,30.179v1.39h2.439V33.4h-2.439v1.434h2.572v1.832h-4.734v-8.318h4.734v1.832H190.869z"/>
		</g>
	</g>
	<polygon points="0,79.795 50.35,3.792 47.051,1.608 0,72.633 	"/>
</g>
</svg>
